<?xml version="1.0" encoding="iso-8859-1"?>
<!-- Uploaded to: SVG Repo, www.svgrepo.com, Generator: SVG Repo Mixer Tools -->
<!DOCTYPE svg PUBLIC "-//W3C//DTD SVG 1.1//EN" "http://www.w3.org/Graphics/SVG/1.1/DTD/svg11.dtd">
<svg fill="#000000" height="800px" width="800px" version="1.1" id="Capa_1" xmlns="http://www.w3.org/2000/svg" xmlns:xlink="http://www.w3.org/1999/xlink" 
	 viewBox="0 0 259.838 259.838" xml:space="preserve">
<g>
	<path d="M162.008,60.736c-2.173-0.499-5.319,0.57-7.459,0.931c-2.793,0.471-5.579,0.979-8.351,1.559
		c12.071-15.409,36.036-41.933,13.058-58.604c-15.986-11.599-36.976,0.126-38.647,18.674c-0.028,0.308,0.154,0.487,0.379,0.599
		c0.053,0.084,0.036,0.184,0.124,0.257c1.659,1.391,3.378,2.654,5.229,3.78c1.667,1.014,3.506,2.314,5.504,2.387
		c0.242,0.009,0.447-0.064,0.612-0.185c0.591,0.447,1.598,0.219,1.645-0.762c1.47-6.636,6.04-8.76,13.709-6.37
		c1.219,4.03,0.723,7.561-1.488,10.592c-1.784,3.119-4.615,5.978-6.945,8.717c-3.748,4.406-7.667,8.644-11.64,12.84
		c-0.403,0.01-0.808,0.024-1.211,0.032c-0.742,0.015-0.743,1.138,0,1.153c0.032,0.001,0.065,0.002,0.097,0.003
		c-0.354,0.372-0.699,0.752-1.054,1.123c-0.418,0.437-0.484,0.935-0.368,1.385c-0.514,3.033-0.843,6.03-0.93,9.124
		c-0.09,3.204-0.536,6.862,0.687,9.87c0.362,0.891,1.639,1.027,1.954,0c0.603-1.967,0.538-4.108,0.44-6.223
		c2.149,0.067,4.311,0.152,6.446-0.031c0.8-0.069,0.802-1.177,0-1.246c-2.15-0.185-4.326-0.097-6.491-0.03
		c-0.022-0.537-0.049-1.077-0.049-1.602c-0.001-2.902-0.011-5.796-0.061-8.694c0.191-0.073,0.379-0.194,0.555-0.372
		c1.041-1.05,2.063-2.126,3.09-3.195c2.751,0.077,5.504,0.134,8.244-0.001c0.885-0.044,0.886-1.332,0-1.376
		c-2.286-0.113-4.581-0.091-6.877-0.037c3.18-3.361,6.224-6.854,9.184-10.41c2.999-0.037,5.936-0.723,8.456-2.424
		c0.568-0.384,0.08-1.211-0.535-0.915c-2.282,1.099-4.55,1.881-6.993,2.196c1.258-1.537,2.553-3.047,3.754-4.623
		c1.47-1.929,2.957-4.043,4.036-6.277c1.453-0.437,2.897-0.894,4.303-1.473c0.643-0.265,0.414-1.281-0.297-1.076
		c-1.151,0.333-2.272,0.745-3.387,1.177c1.033-2.675,1.345-5.513,0.15-8.441c-0.07-0.173-0.166-0.303-0.242-0.466
		c1.073-0.271,2.144-0.562,3.158-0.98c0.633-0.261,0.409-1.172-0.287-1.04c-1.156,0.22-2.287,0.597-3.407,0.988
		c-4.87-7.868-17.478-1.542-18.048,6.776c-1.269-1.036-2.958-1.628-4.371-2.417c-1.483-0.829-2.914-1.758-4.333-2.696
		c3.989-0.944,7.979-1.851,11.899-3.056c0.619-0.19,0.364-1.107-0.267-0.968c-4.233,0.934-8.372,2.195-12.535,3.398
		c-0.012,0.003-0.012,0.014-0.023,0.019c0.712-2.459,1.712-4.843,2.947-7.075c2.808-1.636,5.844-2.693,9.095-3.067
		c0.719-0.083,0.754-1.199,0-1.153c-2.822,0.174-5.474,0.909-7.911,2.2c3.08-4.656,7.459-8.301,13.232-9.665
		c13.359-3.156,26.189,6.788,25.782,20.4c-0.424,14.173-15.505,27.759-23.231,39.119c-0.657,0.965-0.083,1.824,0.75,2.131
		c0.148,0.204,0.353,0.359,0.664,0.346c4.675-0.196,9.34-0.734,13.985-1.283c0.595-0.07,1.221-0.221,1.821-0.229
		c2.287-0.028,1.723,0.487,1.725,2.183c0.002,1.842-0.009,3.645,0.202,5.455c-5.429,0.826-10.684,2.636-16.154,3.434
		c-5.625,0.82-11.174,1.014-16.85,1.047c-1.535,0.009-1.473,2.196,0,2.342c10.811,1.073,24.523,0.554,34.327-4.613
		c0.163-0.086,0.192-0.218,0.29-0.329c0.521-0.07,1.009-0.345,1.108-0.918c0.476-2.762,0.8-6.523,0.202-9.268
		C164.117,62.021,163.479,61.074,162.008,60.736z"/>
	<path d="M165.027,155.033c-0.082-18.452-0.807-37.395-3.125-55.658c-0.041-0.324-0.252-0.495-0.487-0.587
		c-0.136-0.451-0.518-0.805-1.179-0.783c-3.936,0.13-7.866,0.561-11.79,0.89c-0.732,0.061-1.317,0.562-1.334,1.334
		c-0.117,5.181-0.473,10.886,0.379,16.121c-2.415,0.44-4.779,1.15-7.159,1.754c-1.088,0.276-2.963,1.205-4.01,0.857
		c-1.131,0.401-1.365-0.062-0.699-1.388c0.124-1.049,0.284-2.093,0.481-3.131c0.929-5.288,2.419-10.331,4.069-15.418
		c0.851-0.386,0.911-1.858-0.13-2.04c-2.477-0.434-5.063-0.161-7.577-0.212c-2.129-0.043-4.509-0.484-6.603,0.031
		c0.061-1.108-1.515-1.557-1.857-0.387c-3.698,12.664-6.034,25.603-7.83,38.661c-0.131,0.951,0.389,2.09,1.54,2.021
		c10.383-0.617,20.775-1.204,31.149-1.967c-0.675,7.585-0.616,15.226-0.584,22.836c0.003,0.703,0.661,1.541,1.439,1.439
		c4.339-0.566,8.782-0.932,13.087-1.783c0.221,1.341,2.25,1.384,2.248-0.078c0-0.198-0.006-0.399-0.007-0.597
		C165.629,156.441,165.609,155.51,165.027,155.033z M151.136,156.315c-0.095-5.608-0.151-11.223-0.356-16.829
		c0.133,0.052,0.287,0.058,0.45-0.019c1.273-0.601,2.38-0.513,3.714-0.432c0.715,0.044,0.772-0.972,0.161-1.187
		c-1.484-0.521-3.026-0.107-4.359,0.638c-0.048-1.177-0.053-2.356-0.123-3.531c1.687-0.416,1.645-3.142-0.273-3.048
		c-0.031,0.002-0.062,0.004-0.093,0.005c-0.265-0.254-0.687-0.224-0.945,0.054c-9.92,0.5-19.836,1.169-29.748,1.818
		c0.219-1.595,0.473-3.183,0.711-4.774c6.716-0.097,13.438-0.169,20.137-0.657c0.673-0.049,0.69-1.051,0-1.06
		c-6.658-0.083-13.313,0.244-19.964,0.55c0.29-1.898,0.637-3.787,0.949-5.681c3.48-0.135,6.989-0.201,10.442-0.634
		c0.828-0.104,0.887-1.345,0-1.339c-3.413,0.026-6.832,0.411-10.235,0.735c0.441-2.644,0.948-5.278,1.411-7.919
		c2.269-0.384,4.505-0.382,6.818-0.507c0.58-0.032,0.765-0.919,0.143-1.059c-2.223-0.502-4.504-0.277-6.719,0.206
		c0.376-2.127,0.763-4.252,1.137-6.379c1.792,0.353,3.695,0.715,5.444,0.594c0.623-0.043,0.788-0.927,0.151-1.114
		c-1.674-0.491-3.585-0.551-5.397-0.591c0.363-2.052,0.713-4.106,1.097-6.156c1.826,1.001,4.178,1.075,6.217,1.254
		c1.967,0.173,4.06,0.378,6.071,0.202c-1.542,3.255-2.811,6.629-3.762,10.11c-0.745,2.727-2.503,7.715-1.687,10.586
		c0.505,1.773,1.862,2.073,3.52,1.965c3.71-0.242,8.377-1.752,11.981-3.176c0.279,0.34,0.924,0.323,1.019-0.181
		c0.023-0.123,0.025-0.254,0.047-0.378c0.625-0.487,0.655-1.232,0.214-1.734c0.624-4.956,0.38-10.189,0.461-15.18
		c3.492-0.244,6.994-0.447,10.465-0.881c0.091-0.011,0.159-0.052,0.24-0.077c-0.536,17.969,0.481,36.421,2.071,54.354
		C158.736,155.125,154.922,155.754,151.136,156.315z"/>
	<path d="M90.795,70.676c-1.294-0.871-3.563-0.095-4.981,0.1c-2.064,0.283-4.199,0.518-6.2,1.138
		c0.075-4.035-0.089-8.092-0.216-12.123c-0.021-0.661-0.53-1.172-1.193-1.193c-4.166-0.135-8.327-0.195-12.495-0.158
		c-0.667,0.006-1.346,0.591-1.299,1.299c0.267,3.954,0.756,7.876,1.429,11.777c-3.763,0.446-7.496,0.84-11.293,0.904
		c-0.72,0.012-1.249,0.58-1.284,1.285c-0.158,3.183,0.078,6.328,0.837,9.426c0.134,0.547,0.713,0.672,1.163,0.511
		c2.13,0.234,4.246,0.334,6.389,0.34c1.752,0.004,3.666,0.317,5.178-0.649c-0.435,1.852-0.788,3.715-1.106,5.594
		c-0.268,1.579-0.858,3.355-0.798,4.953c0.137,3.621,4.101,2.929,6.709,2.954c2.002,0.019,6.994,1.157,7.912-1.449
		c0.49-1.391-0.067-3.535-0.184-4.974c-0.172-2.133-0.347-4.265-0.538-6.396c1.695,0.373,3.443,0.189,5.175,0.157
		c1.997-0.038,3.996-0.047,5.99-0.159c0.678-0.038,1.184-0.526,1.214-1.214c0.117-2.655,0.249-5.311,0.39-7.965
		C91.662,73.544,92.094,71.552,90.795,70.676z M89.338,74.39c-0.053,0.885-0.117,1.77-0.176,2.655
		c-0.101,1.509-0.201,3.018-0.305,4.526c-1.619-0.036-3.239-0.045-4.858-0.049c-1.786-0.004-3.634-0.188-5.37,0.272
		c-0.331,0.088-0.526,0.319-0.654,0.586c-0.875-0.442-2.128-0.077-2.036,1.168c0.207,2.779,0.45,5.555,0.687,8.331
		c0.055,0.645,0.166,1.313,0.167,1.96c0,0.128,0.036,0.161,0.062,0.225c-0.06-0.006-0.076-0.031-0.174-0.017
		c-1.438,0.203-3.091-0.016-4.543-0.023c-0.905-0.005-3.281,0.424-4.038-0.02c-0.662-0.389-0.487-1.251-0.331-2.11
		c0.855,0.036,1.709,0.085,2.566,0.072c0.658-0.01,0.659-1.012,0-1.023c-0.814-0.013-1.626,0.035-2.437,0.068
		c0.113-1.025,0.221-2.05,0.327-3.076c1.145,0.068,2.295,0.16,3.432,0.035c0.62-0.068,0.622-0.899,0-0.967
		c-1.104-0.121-2.224-0.037-3.336,0.03c0.155-1.601,0.279-3.205,0.304-4.816c0.013-0.854-1.257-1.029-1.49-0.213
		c-0.111-0.163-0.262-0.303-0.479-0.378c-1.726-0.598-3.642,0.164-5.44,0.291c-1.816,0.129-3.644,0.111-5.464,0.054
		c-0.079-1.063-0.112-2.121-0.119-3.18c4.919-0.053,9.801,0.291,14.702,0.697c0.661,0.054,0.821-1.056,0.158-1.169
		c-4.919-0.84-9.869-0.936-14.841-0.657c0.017-0.904,0.036-1.809,0.109-2.715c3.659-0.04,7.332-0.251,10.934-0.895
		c0.278-0.05,0.472-0.198,0.624-0.379c0.287-0.129,0.525-0.347,0.496-0.72c-0.208-2.726-0.349-5.456-0.501-8.185
		c1.888,0.036,3.778,0.097,5.665,0.056c0.61-0.013,0.611-0.935,0-0.948c-1.903-0.041-3.811,0.02-5.716,0.056
		c-0.052-0.968-0.133-1.934-0.178-2.902c3.303,0.04,6.603,0.026,9.905-0.042c-0.07,3.761-0.155,7.539-0.017,11.294
		c0.034,0.911,0.781,1.318,1.473,1.251c0.003,0,0.004,0.004,0.007,0.004c1.554,0.21,3.03,0.092,4.591-0.049
		c0.885-0.08,1.771-0.148,2.656-0.23c0.789-0.073,2.358-0.558,3.101-0.317C89.644,73.217,89.404,73.308,89.338,74.39z"/>
	<path d="M205.207,184.343c0.311-3.786,0.123-8.35-2.171-11.264c-0.515-0.654-1.457-0.421-1.936,0.151
		c0.068-0.688-0.327-1.404-1.232-1.383c-38.264,0.881-76.856,2.932-114.918,6.986c-0.674,0.072-0.892,0.725-0.719,1.205
		c-0.817,1.203-0.848,2.909-0.802,4.357c0.068,2.141,0.539,4.35,1.726,6.156c0.02,0.031,0.056,0.029,0.078,0.057
		c-0.497,0.35-0.43,1.226,0.331,1.228c39.854,0.098,79.817-2.765,119.625-4.521C207.09,187.231,207.104,184.279,205.207,184.343z
		 M86.955,190.326c0.054-0.169,0.112-0.34,0.053-0.556c-0.489-1.771-0.988-3.457-0.96-5.313c6.449,0.181,12.885,0.287,19.327,0.777
		c0.736,0.056,0.711-1.053,0-1.134c-6.376-0.729-12.83-1.056-19.243-0.609c0.154-1.011,0.445-2.028,0.34-3.011
		c37.787-1.366,75.662-3.668,113.397-6.031c0.413-0.026,0.724-0.203,0.933-0.453c0,0-0.003,0.006-0.003,0.01
		c0.069,1.853,0.85,3.623,1.22,5.443c0.336,1.656,0.48,3.324,0.532,5.002C164.053,186.126,125.337,186.89,86.955,190.326z"/>
	<path d="M181.081,230.911c-3.118-13.162-18.353-15.423-28.739-9.843c3.36-5.845,7.413-10.74,13.262-14.426
		c0.747-0.471,1.059-1.686,0.3-2.327c-0.05-0.043-0.1-0.088-0.15-0.13c0.727,0.137,1.445-0.481,1.016-1.259
		c-0.632-1.146-1.691-1.892-2.661-2.755c-1.094-0.973-2.178-2.083-3.38-2.919c-0.345-0.24-0.726-0.358-1.101-0.408
		c-0.072-0.417-0.45-0.823-0.939-0.719c-12.409,2.625-24.994,13.865-30.222,26.44c-0.284,0.054-0.401,0.416-0.238,0.61
		c-1.102,2.786-1.855,5.63-2.145,8.457c-1.553,15.13,8.403,28.831,24.316,28.186C164.1,259.261,184.988,247.401,181.081,230.911z
		 M173.078,245.925c-1.968,2.068-4.182,3.789-6.642,5.164c-8.799,5.419-21.425,7.478-29.546,1.066
		c4.25,0.507,8.504,1.059,12.775,1.298c0.75,0.042,0.944-1.229,0.18-1.333c-4.785-0.65-9.619-0.92-14.434-1.287
		c-1.165-1.163-2.207-2.537-3.1-4.14c4.448,0.381,8.966,0.712,13.393,0.622c0.817-0.017,0.783-1.164,0-1.246
		c-4.581-0.478-9.301-0.521-13.937-0.508c-0.9-1.832-1.472-3.677-1.879-5.522c3.287,0.07,6.573,0.15,9.861,0.093
		c0.766-0.013,0.767-1.177,0-1.19c-3.366-0.058-6.73,0.027-10.096,0.098c-0.436-2.486-0.417-4.964-0.092-7.413
		c3.012,0.335,6.222,0.227,9.056-0.632c0.663-0.201,0.578-1.324-0.17-1.26c-2.935,0.249-5.787,0.492-8.699,0.577
		c0.412-2.25,1.13-4.461,2.063-6.619c3.085,0.363,6.201,0.655,9.261,0.725c0.973,0.022,0.935-1.397,0-1.487
		c-2.871-0.278-5.817-0.365-8.746-0.384c1.03-2.17,2.327-4.259,3.766-6.277c3.428-0.242,6.822-0.135,10.266-0.345
		c0.861-0.053,1.158-1.394,0.215-1.589c-2.858-0.59-5.95-0.467-8.951-0.094c1.656-2.082,3.529-4.002,5.476-5.835
		c3.976-0.353,7.861-0.279,11.853-0.328c0.956-0.012,1.249-1.567,0.235-1.735c-3.164-0.522-6.521-0.432-9.77-0.03
		c3.436-2.913,7.102-5.428,10.747-7.306c0.013,0.258,0.083,0.521,0.277,0.748c0.74,0.867,1.576,1.655,2.426,2.431
		c-2.409-0.691-4.922-0.756-7.405-0.385c-0.749,0.112-0.581,1.417,0.181,1.333c2.685-0.294,5.143,0.076,7.721,0.833
		c0.488,0.143,0.823-0.145,0.927-0.514c0.702,0.596,1.404,1.194,2.111,1.778c-5.888,4.091-10.636,9.735-12.875,16.637
		c-0.128,0.396,0.047,0.7,0.298,0.932c-0.536,0.935,0.427,2.179,1.63,1.636c9.514-4.292,17.773-5.482,23.499,4.472
		C179.992,234.27,179.368,239.941,173.078,245.925z"/>
	<path d="M164.758,236.553c-0.821-3.216-4.042-5.51-7.211-5.584c0.003-0.333-0.197-0.678-0.594-0.668
		c-5.608,0.132-11.141,4.034-11.976,9.859c-0.862,6.012,5.384,9.084,10.526,7.863C160.569,246.818,166.24,242.358,164.758,236.553z
		 M162.016,239.346c-0.82,3.361-5.108,5.583-8.253,5.918c-5.207,0.555-7.472-3.919-4.792-8.333c0.967-1.592,2.314-2.817,3.856-3.736
		c-0.267,0.713,0.239,1.69,1.109,1.357c1.529-0.586,3.055-1.309,4.738-0.868C161.107,234.323,162.611,236.91,162.016,239.346z"/>
	<path d="M156.388,150.549c-1.533-0.357-3.173-0.169-4.739-0.145c-0.706,0.011-0.707,1.086,0,1.097
		c1.566,0.024,3.206,0.212,4.739-0.145C156.787,151.263,156.787,150.642,156.388,150.549z"/>
	<path d="M157.052,144.59c-1.778-0.247-3.61-0.083-5.402-0.052c-0.598,0.01-0.599,0.92,0,0.93c1.793,0.03,3.624,0.194,5.402-0.052
		C157.46,145.358,157.46,144.647,157.052,144.59z"/>
	<path d="M72.318,70.538c-1.355,0.049-2.601-0.111-3.86-0.611c-0.398-0.158-0.686,0.517-0.294,0.697
		c1.368,0.625,2.654,0.91,4.154,0.732C72.826,71.296,72.857,70.518,72.318,70.538z"/>
	<path d="M136.445,63.216c-2.864-0.116-5.73,0.025-8.594,0.102c-0.478,0.013-0.479,0.731,0,0.744
		c2.864,0.077,5.73,0.218,8.594,0.102C137.054,64.139,137.055,63.241,136.445,63.216z"/>
	<path d="M146.91,15.026c-2.228,0.577-4.432,1.231-6.639,1.881c-0.539,0.159-0.314,0.985,0.232,0.843
		c2.227-0.581,4.452-1.155,6.659-1.809C147.747,15.767,147.503,14.873,146.91,15.026z"/>
</g>
</svg>